# xmcd CD database file
# Copyright (C) 1993-1998 Ti Kan
#
# Track frame offsets:
#  150
#  19970
#  38665
#  53120
#  72240
#  92377
#  112205
#  129227
#  144035
#  160945
#
# Disc length: 2367 seconds
#
# Revision: 1
# Processed by: cddbd v1.4b41PL1 Copyright (c) Steve Scherf et al.
# Submitted via: CDWizzard Release:4.35
#
DISCID=7c093d0a
DTITLE=Margaret Becker - Immigrant's Daughter
DYEAR=1900
DGENRE=
TTITLE0=Immigrant's Daughter
TTITLE1=This Is My Passion
TTITLE2=Stay Close To Me
TTITLE3=The Hunger Stays
TTITLE4=Just Come In
TTITLE5=I Commit
TTITLE6=Honesty
TTITLE7=Solomon's Shoes
TTITLE8=Laugh A Little
TTITLE9=People Get Ready
EXTD=
EXTT0=
EXTT1=
EXTT2=
EXTT3=
EXTT4=
EXTT5=
EXTT6=
EXTT7=
EXTT8=
EXTT9=
PLAYORDER=
